<svg xmlns="http://www.w3.org/2000/svg" viewBox="0 0 800 300" width="100%" height="100%">
  <defs>
    <linearGradient id="bg-random" x1="0%" y1="0%" x2="100%" y2="100%">
      <stop offset="0%" stop-color="#0f2938"/>
      <stop offset="50%" stop-color="#081824"/>
      <stop offset="100%" stop-color="#030c14"/>
    </linearGradient>
    <linearGradient id="glow-cyan" x1="0%" y1="0%" x2="100%" y2="100%">
      <stop offset="0%" stop-color="#38bdf8" stop-opacity="0.35"/>
      <stop offset="100%" stop-color="#0284c7" stop-opacity="0"/>
    </linearGradient>
  </defs>
  <rect width="800" height="300" fill="url(#bg-random)"/>
  <circle cx="120" cy="90" r="160" fill="url(#glow-cyan)"/>
  <!-- Mountain & Mist Silhouettes -->
  <path d="M0 240 L160 160 L320 230 L500 130 L660 210 L800 150 L800 300 L0 300 Z" fill="#0b1e2e" opacity="0.8"/>
  <path d="M0 260 L200 200 L380 260 L560 190 L700 240 L800 210 L800 300 L0 300 Z" fill="#040e17" opacity="0.9"/>
  <!-- Torii Gate Silhouette Accent -->
  <path d="M120 180 L180 180 L180 185 L120 185 Z M125 188 L175 188 L175 192 L125 192 Z M133 192 L133 240 L138 240 L138 192 Z M162 192 L162 240 L167 240 L167 192 Z" fill="#1e3a54" opacity="0.6"/>
</svg>
